<svg width="61" height="61" viewBox="0 0 61 61" fill="none" xmlns="http://www.w3.org/2000/svg">
<circle cx="30.5" cy="30.5" r="30.5" fill="white"/>
<path d="M32.3457 18.4062L32.1172 36.7754H29.1816L28.9355 18.4062H32.3457ZM28.8301 42.3652C28.8301 41.8379 28.9883 41.3926 29.3047 41.0293C29.6328 40.666 30.1133 40.4844 30.7461 40.4844C31.3672 40.4844 31.8418 40.666 32.1699 41.0293C32.5098 41.3926 32.6797 41.8379 32.6797 42.3652C32.6797 42.8691 32.5098 43.3027 32.1699 43.666C31.8418 44.0293 31.3672 44.2109 30.7461 44.2109C30.1133 44.2109 29.6328 44.0293 29.3047 43.666C28.9883 43.3027 28.8301 42.8691 28.8301 42.3652Z" fill="#F55E62"/>
</svg>
